<?xml version="1.0" encoding="UTF-8"?>
<svg version="1.1" xmlns="http://www.w3.org/2000/svg" width="512" height="512">
<path d="M0 0 C5.33331748 4.26042418 10.20688077 9.05794343 15.02685547 13.8815918 C16.00402275 14.85372116 16.00402275 14.85372116 17.00093079 15.8454895 C19.12563355 17.9607921 21.24663958 20.07975158 23.3671875 22.19921875 C24.8530466 23.68186058 26.3389792 25.16442876 27.82498169 26.64692688 C30.9248094 29.74079289 34.0225898 32.83669233 37.11914062 35.93383789 C41.08862853 39.90342792 45.06498214 43.86606384 49.04308891 47.82701397 C52.10736302 50.88018491 55.16709696 53.9378744 58.22555923 56.99686623 C59.69038744 58.46051431 61.15683767 59.92254092 62.62493515 61.38290977 C64.67123229 63.41942962 66.71112043 65.46216308 68.74951172 67.5065918 C69.35625229 68.10771286 69.96299286 68.70883392 70.58811951 69.32817078 C71.14305588 69.88730164 71.69799225 70.4464325 72.26974487 71.02250671 C72.75159178 71.50380885 73.23343868 71.98511099 73.72988701 72.48099804 C75.96840273 75.15816912 76.92445319 77.49275711 77.4375 80.9375 C76.83745476 85.13781667 75.33724168 86.46079437 72 89 C67.80850648 89.95288046 63.79518507 90.11807231 59.5078125 90.09765625 C58.4264502 90.09515869 57.34508789 90.09266113 56.23095703 90.09008789 C54.1985083 90.07643188 54.1985083 90.07643188 52.125 90.0625 C47.79375 90.041875 43.4625 90.02125 39 90 C39 103.86 39 117.72 39 132 C42.26003906 131.97905273 45.52007812 131.95810547 48.87890625 131.93652344 C59.65955386 131.87019406 70.44021057 131.82604075 81.2210083 131.79275131 C87.75633554 131.7718919 94.29145341 131.74360357 100.82666016 131.69824219 C107.13550877 131.65472686 113.44415618 131.63085051 119.75314331 131.62049103 C122.1580624 131.61310997 124.56297069 131.59869649 126.96780396 131.57707977 C130.34075571 131.54797123 133.71288 131.54404726 137.0859375 131.54589844 C138.07640579 131.53151733 139.06687408 131.51713623 140.08735657 131.50231934 C147.03941967 131.54350602 152.722431 132.82681218 157.83984375 137.78125 C158.20207031 138.3484375 158.56429688 138.915625 158.9375 139.5 C159.31777344 140.0671875 159.69804687 140.634375 160.08984375 141.21875 C162.00317713 144.96329945 162.11977741 148.48184662 162.09765625 152.640625 C162.09443359 153.71054688 162.09121094 154.78046875 162.08789062 155.8828125 C162.07951172 156.99398437 162.07113281 158.10515625 162.0625 159.25 C162.05798828 160.37664062 162.05347656 161.50328125 162.04882812 162.6640625 C162.03705397 165.44276217 162.0206084 168.22135409 162 171 C163.0355603 170.97643433 163.0355603 170.97643433 164.09204102 170.95239258 C167.24877588 170.88966547 170.40537915 170.85089 173.5625 170.8125 C174.64853516 170.78736328 175.73457031 170.76222656 176.85351562 170.73632812 C183.03372535 170.67997363 187.59320503 170.89569051 193 174 C197.57661492 178.93792662 198.26937409 181.94646316 198.20119858 188.48789597 C197.7779292 195.87644763 196.45986544 203.15740518 195.27783203 210.45556641 C194.98479142 212.30451712 194.69249401 214.15358576 194.40087891 216.00276184 C193.61097439 220.99760996 192.81053982 225.99071783 192.00799036 230.98354769 C191.16764427 236.22210733 190.33658254 241.46214007 189.50436401 246.70199585 C188.10610109 255.49723389 186.70146444 264.29143433 185.29248047 273.08496094 C183.48649396 284.35640273 181.69098294 295.62948679 179.89880562 306.90313148 C178.35436308 316.61790144 176.80516435 326.33191202 175.25517797 336.04579878 C174.75877947 339.15800001 174.26301793 342.27030223 173.7673378 345.38261795 C172.98704726 350.2799807 172.20378497 355.17685966 171.41825867 360.07338524 C171.13111756 361.86585175 170.84489296 363.65846537 170.55967331 365.45123863 C170.16882862 367.90676541 169.77455417 370.36171836 169.37942505 372.81655884 C169.2130709 373.86906434 169.2130709 373.86906434 169.04335606 374.94283259 C168.45506719 378.5733962 167.79808926 382.18828886 167.06612968 385.79271507 C166.84878113 386.87401146 166.84878113 386.87401146 166.6270417 387.97715223 C165.53989869 391.48429509 163.61275349 393.4509722 161 396 C157.81112726 397.06295758 155.54840397 397.12747117 152.19715405 397.13142776 C150.37018703 397.13718948 150.37018703 397.13718948 148.5063116 397.1430676 C147.14761486 397.14228731 145.78891817 397.14140852 144.43022156 397.14044189 C142.99235241 397.14302485 141.55448398 397.14603781 140.11661655 397.1494453 C136.15582542 397.15752669 132.1950524 397.1593055 128.234254 397.16004276 C123.96625348 397.16189133 119.69826241 397.16943765 115.43026733 397.17617798 C106.09356432 397.1897697 96.75686559 397.19578727 87.42015433 397.20018864 C81.59259497 397.20294952 75.76503726 397.20718658 69.93747902 397.21169281 C53.80919721 397.22388635 37.68091674 397.23418564 21.55263042 397.2375679 C20.52004883 397.23778747 19.48746724 397.23800703 18.4235953 397.23823325 C17.38851551 397.23845153 16.35343571 397.23866981 15.28698987 397.2388947 C13.18945483 397.23933817 11.0919198 397.23978473 8.99438477 397.24023438 C7.95393058 397.2404558 6.91347639 397.24067723 5.84149329 397.24090537 C-11.02221681 397.24485442 -27.88588373 397.26231131 -44.74957714 397.2855939 C-62.05471272 397.30929353 -79.35982661 397.32176911 -96.66497868 397.32293582 C-106.38465583 397.32385334 -116.1042767 397.32962499 -125.82393837 397.34775543 C-134.09957576 397.36313767 -142.3751395 397.36828799 -150.65078846 397.36001733 C-154.87428887 397.35610421 -159.09764087 397.35707258 -163.32112312 397.37107468 C-167.18693787 397.38377398 -171.05249207 397.38265124 -174.91830625 397.37048396 C-176.31737442 397.36852006 -177.7164608 397.37163733 -179.11550335 397.38032833 C-181.01684897 397.39139258 -182.91828028 397.38215836 -184.81963062 397.3719368 C-186.40404256 397.37283243 -186.40404256 397.37283243 -188.02046281 397.37374616 C-192.46978922 396.81563309 -195.69737016 395.32365056 -198.85105562 392.11907363 C-200.22400219 389.58685803 -200.37784158 387.96802731 -200.38311005 385.09482193 C-200.39216669 384.10250698 -200.40122333 383.11019204 -200.41055441 382.08780694 C-200.40522648 380.99988595 -200.39989856 379.91196496 -200.39440918 378.79107666 C-200.40050028 377.63357462 -200.40659139 376.47607257 -200.41286707 375.28349471 C-200.42665085 372.06982708 -200.4269438 368.85648316 -200.4214921 365.64280081 C-200.41882481 362.17707898 -200.4333482 358.71142288 -200.44558716 355.24572754 C-200.46665782 348.45500072 -200.47118102 341.66435925 -200.46939927 334.87360361 C-200.4680922 329.35316161 -200.47189301 323.83274625 -200.47932434 318.31230927 C-200.48142353 316.72275599 -200.48352113 315.13320271 -200.48561716 313.54364944 C-200.48718245 312.356917 -200.48718245 312.356917 -200.48877937 311.14621016 C-200.50768913 296.17721848 -200.5066296 281.20827578 -200.49981004 266.23927709 C-200.49423692 252.54875587 -200.51504877 238.85842192 -200.54817051 225.16794446 C-200.58191616 211.1104088 -200.59707456 197.05296281 -200.59245348 182.99538589 C-200.59020929 175.10326189 -200.59544407 167.21131088 -200.62034607 159.3192215 C-200.64137083 152.59864126 -200.64493996 145.8783288 -200.62604648 139.15773752 C-200.61689473 135.72978825 -200.61572723 132.30233805 -200.63640213 128.8744278 C-200.654544 125.15478103 -200.64188021 121.4364641 -200.62145996 117.71685791 C-200.63397781 116.6378598 -200.64649566 115.5588617 -200.65939283 114.44716668 C-200.58113485 107.79993081 -199.51714412 103.04731141 -195 98 C-188.67288132 93.06016609 -181.7005836 93.45373354 -173.97460938 93.54589844 C-172.68596985 93.54531433 -171.39733032 93.54473022 -170.06964111 93.54412842 C-166.55760322 93.54298669 -163.04611834 93.56640689 -159.5342083 93.59442425 C-155.85604577 93.61952918 -152.17786878 93.62178703 -148.49963379 93.62652588 C-141.54408275 93.6389291 -134.58878495 93.67171439 -127.63334513 93.71192384 C-119.71073435 93.75672456 -111.78811111 93.77864938 -103.86540508 93.79870558 C-87.57678878 93.84044969 -71.28842677 93.9107496 -55 94 C-55 92.68 -55 91.36 -55 90 C-56.12494873 90.01571045 -57.24989746 90.0314209 -58.40893555 90.04760742 C-62.59278165 90.10201216 -66.77659662 90.13638836 -70.96069336 90.16479492 C-72.76966617 90.17985755 -74.5786026 90.20031177 -76.38745117 90.22631836 C-78.99146515 90.2628132 -81.5949952 90.27975157 -84.19921875 90.29296875 C-85.00461594 90.30845261 -85.81001312 90.32393646 -86.63981628 90.33988953 C-91.22181784 90.34125491 -94.3312828 90.06548219 -98 87 C-99.38603261 82.76037084 -99.36630973 80.76529174 -97.43260193 76.72540283 C-94.86007582 72.46998959 -91.53649794 69.12284698 -88.01586914 65.64355469 C-87.32105942 64.9450943 -86.62624969 64.24663391 -85.91038513 63.52700806 C-83.62596087 61.23451864 -81.33091581 58.95300848 -79.03515625 56.671875 C-77.43808228 55.07532003 -75.84152726 53.47824577 -74.24546814 51.88067627 C-70.90540519 48.54070286 -67.56025071 45.20594214 -64.21118164 41.875 C-59.92092251 37.60745467 -55.64185333 33.32889585 -51.36631107 29.04661179 C-48.07330436 25.75026268 -44.77532793 22.45892346 -41.47573662 19.16916656 C-39.89597031 17.59324577 -38.31754583 16.01597868 -36.74049568 14.43733978 C-34.53639752 12.23287043 -32.32590871 10.03501744 -30.11352539 7.83886719 C-29.46453278 7.18739716 -28.81554016 6.53592712 -28.1468811 5.86471558 C-20.05967837 -2.12808088 -10.80086332 -6.60067614 0 0 Z " fill="#5A5E69" transform="translate(257,59)"/>
<path d="M0 0 C5.33331748 4.26042418 10.20688077 9.05794343 15.02685547 13.8815918 C16.00402275 14.85372116 16.00402275 14.85372116 17.00093079 15.8454895 C19.12563355 17.9607921 21.24663958 20.07975158 23.3671875 22.19921875 C24.8530466 23.68186058 26.3389792 25.16442876 27.82498169 26.64692688 C30.9248094 29.74079289 34.0225898 32.83669233 37.11914062 35.93383789 C41.08862853 39.90342792 45.06498214 43.86606384 49.04308891 47.82701397 C52.10736302 50.88018491 55.16709696 53.9378744 58.22555923 56.99686623 C59.69038744 58.46051431 61.15683767 59.92254092 62.62493515 61.38290977 C64.67123229 63.41942962 66.71112043 65.46216308 68.74951172 67.5065918 C69.35625229 68.10771286 69.96299286 68.70883392 70.58811951 69.32817078 C71.14305588 69.88730164 71.69799225 70.4464325 72.26974487 71.02250671 C72.75159178 71.50380885 73.23343868 71.98511099 73.72988701 72.48099804 C75.96840273 75.15816912 76.92445319 77.49275711 77.4375 80.9375 C76.83745476 85.13781667 75.33724168 86.46079437 72 89 C67.80850648 89.95288046 63.79518507 90.11807231 59.5078125 90.09765625 C58.4264502 90.09515869 57.34508789 90.09266113 56.23095703 90.09008789 C54.1985083 90.07643188 54.1985083 90.07643188 52.125 90.0625 C47.79375 90.041875 43.4625 90.02125 39 90 C39 103.86 39 117.72 39 132 C42.26003906 131.97905273 45.52007812 131.95810547 48.87890625 131.93652344 C59.65955386 131.87019406 70.44021057 131.82604075 81.2210083 131.79275131 C87.75633554 131.7718919 94.29145341 131.74360357 100.82666016 131.69824219 C107.13550877 131.65472686 113.44415618 131.63085051 119.75314331 131.62049103 C122.1580624 131.61310997 124.56297069 131.59869649 126.96780396 131.57707977 C130.34075571 131.54797123 133.71288 131.54404726 137.0859375 131.54589844 C138.07640579 131.53151733 139.06687408 131.51713623 140.08735657 131.50231934 C147.03941967 131.54350602 152.722431 132.82681218 157.83984375 137.78125 C158.20207031 138.3484375 158.56429688 138.915625 158.9375 139.5 C159.31777344 140.0671875 159.69804687 140.634375 160.08984375 141.21875 C161.99229898 144.94201003 162.12804392 148.47009147 162.1328125 152.60546875 C162.13410156 153.67087891 162.13539063 154.73628906 162.13671875 155.83398438 C162.13285156 156.94064453 162.12898438 158.04730469 162.125 159.1875 C162.12886719 160.30576172 162.13273437 161.42402344 162.13671875 162.57617188 C162.13478516 164.16848633 162.13478516 164.16848633 162.1328125 165.79296875 C162.13168457 166.7677417 162.13055664 167.74251465 162.12939453 168.74682617 C162 171 162 171 161 172 C159.38135539 172.09949688 157.75837118 172.12908675 156.13667297 172.13130188 C154.5573423 172.13731415 154.5573423 172.13731415 152.94610596 172.14344788 C151.78093445 172.14291916 150.61576294 172.14239044 149.4152832 172.1418457 C148.19582504 172.14532013 146.97636688 172.14879456 145.71995544 172.15237427 C143.06094626 172.15974829 140.40198743 172.16541346 137.74297523 172.16866493 C133.53638716 172.17456633 129.32988411 172.19109977 125.12333679 172.21000671 C123.68393808 172.21634465 122.24453931 172.22267026 120.8051405 172.22898388 C119.72360134 172.2337326 119.72360134 172.2337326 118.62021291 172.23857725 C108.8237282 172.28066471 99.02728194 172.31361363 89.23071289 172.32592773 C82.62770828 172.334313 76.02491292 172.35682403 69.42201298 172.3952834 C65.92742466 172.41503521 62.43314907 172.42745186 58.93850136 172.42244911 C55.03602579 172.41693108 51.13407733 172.44222872 47.23168945 172.4699707 C46.0766391 172.46336929 44.92158875 172.45676788 43.73153687 172.44996643 C35.70844397 172.54371565 32.42916842 173.82325409 26.56225586 179.25830078 C25.78760986 180.06251465 25.01296387 180.86672852 24.21484375 181.6953125 C22.92416992 183.01595703 22.92416992 183.01595703 21.60742188 184.36328125 C19.82168188 186.2104183 18.03783807 188.05939032 16.25585938 189.91015625 C15.39669922 190.78800781 14.53753906 191.66585937 13.65234375 192.5703125 C12.49206665 193.77324951 12.49206665 193.77324951 11.30834961 195.00048828 C7.16533003 198.58920646 3.39820642 199.24982191 -1.98973083 199.2515564 C-3.19115723 199.25693924 -4.39258362 199.26232208 -5.63041687 199.26786804 C-6.94016983 199.26374405 -8.24992279 199.25962006 -9.59936523 199.25537109 C-10.99921879 199.25812253 -12.39907078 199.26180335 -13.79891968 199.26634216 C-16.80872648 199.27444213 -19.81845905 199.27662567 -22.82827568 199.27439499 C-27.58968533 199.27155813 -32.35094705 199.28592748 -37.11231995 199.30337524 C-50.65013415 199.35036746 -64.18793792 199.3743441 -77.72583008 199.38085938 C-85.20633599 199.38461139 -92.68667412 199.40265048 -100.16710812 199.43595374 C-104.89813751 199.45615554 -109.62873387 199.45854438 -114.35978878 199.44767356 C-117.30576952 199.44506354 -120.2514989 199.45908419 -123.1974144 199.47775459 C-125.20962018 199.4855996 -127.22187279 199.47364966 -129.23405457 199.46107483 C-137.93821333 199.4855313 -137.93821333 199.4855313 -145 204 C-148.46634309 208.26197651 -149.68781146 211.86359304 -150.59765625 217.2421875 C-150.77825844 218.27123703 -150.77825844 218.27123703 -150.96250916 219.32107544 C-151.34260935 221.50365803 -151.70308238 223.68892655 -152.0625 225.875 C-152.30660298 227.3023131 -152.55203653 228.72939932 -152.79882812 230.15625 C-153.16897658 232.3002602 -153.53765518 234.44444997 -153.90078735 236.58966064 C-154.83041649 242.07952798 -155.83574879 247.55238749 -156.87184143 253.02304077 C-157.76730383 257.75152124 -158.64149303 262.48342026 -159.5 267.21875 C-159.68561745 268.2421196 -159.68561745 268.2421196 -159.87498474 269.28616333 C-160.25034599 271.35737792 -160.6252582 273.42867325 -161 275.5 C-162.59852786 284.33561298 -164.21340345 293.1674687 -165.875 301.99145508 C-167.28423079 309.48808582 -168.64201466 316.9939482 -170 324.5 C-170.49942982 327.26052031 -170.9993555 330.02094971 -171.5 332.78125 C-171.62334213 333.46176422 -171.74668427 334.14227844 -171.87376404 334.84341431 C-172.61735217 338.93364954 -173.37931082 343.02000913 -174.15367126 347.10452271 C-175.2493673 352.88527139 -176.29320085 358.67013533 -177.24609375 364.4765625 C-177.44396484 365.66121094 -177.64183594 366.84585937 -177.84570312 368.06640625 C-178.24645409 370.47620248 -178.63677599 372.88775226 -179.01757812 375.30078125 C-180.06353681 381.45467411 -180.90818401 386.18712089 -185 391 C-181.79332827 391.21863671 -179.62759222 391.33122923 -176.75 389.8125 C-174.53253273 387.74419339 -174.53253273 387.74419339 -173 383 C-60.8 383 51.4 383 167 383 C165.94113245 390.41207285 165.77837624 391.22162376 161 396 C157.81112726 397.06295758 155.54840397 397.12747117 152.19715405 397.13142776 C150.37018703 397.13718948 150.37018703 397.13718948 148.5063116 397.1430676 C147.14761486 397.14228731 145.78891817 397.14140852 144.43022156 397.14044189 C142.99235241 397.14302485 141.55448398 397.14603781 140.11661655 397.1494453 C136.15582542 397.15752669 132.1950524 397.1593055 128.234254 397.16004276 C123.96625348 397.16189133 119.69826241 397.16943765 115.43026733 397.17617798 C106.09356432 397.1897697 96.75686559 397.19578727 87.42015433 397.20018864 C81.59259497 397.20294952 75.76503726 397.20718658 69.93747902 397.21169281 C53.80919721 397.22388635 37.68091674 397.23418564 21.55263042 397.2375679 C20.52004883 397.23778747 19.48746724 397.23800703 18.4235953 397.23823325 C17.38851551 397.23845153 16.35343571 397.23866981 15.28698987 397.2388947 C13.18945483 397.23933817 11.0919198 397.23978473 8.99438477 397.24023438 C7.95393058 397.2404558 6.91347639 397.24067723 5.84149329 397.24090537 C-11.02221681 397.24485442 -27.88588373 397.26231131 -44.74957714 397.2855939 C-62.05471272 397.30929353 -79.35982661 397.32176911 -96.66497868 397.32293582 C-106.38465583 397.32385334 -116.1042767 397.32962499 -125.82393837 397.34775543 C-134.09957576 397.36313767 -142.3751395 397.36828799 -150.65078846 397.36001733 C-154.87428887 397.35610421 -159.09764087 397.35707258 -163.32112312 397.37107468 C-167.18693787 397.38377398 -171.05249207 397.38265124 -174.91830625 397.37048396 C-176.31737442 397.36852006 -177.7164608 397.37163733 -179.11550335 397.38032833 C-181.01684897 397.39139258 -182.91828028 397.38215836 -184.81963062 397.3719368 C-186.40404256 397.37283243 -186.40404256 397.37283243 -188.02046281 397.37374616 C-192.46978922 396.81563309 -195.69737016 395.32365056 -198.85105562 392.11907363 C-200.22400219 389.58685803 -200.37784158 387.96802731 -200.38311005 385.09482193 C-200.39216669 384.10250698 -200.40122333 383.11019204 -200.41055441 382.08780694 C-200.40522648 380.99988595 -200.39989856 379.91196496 -200.39440918 378.79107666 C-200.40050028 377.63357462 -200.40659139 376.47607257 -200.41286707 375.28349471 C-200.42665085 372.06982708 -200.4269438 368.85648316 -200.4214921 365.64280081 C-200.41882481 362.17707898 -200.4333482 358.71142288 -200.44558716 355.24572754 C-200.46665782 348.45500072 -200.47118102 341.66435925 -200.46939927 334.87360361 C-200.4680922 329.35316161 -200.47189301 323.83274625 -200.47932434 318.31230927 C-200.48142353 316.72275599 -200.48352113 315.13320271 -200.48561716 313.54364944 C-200.48718245 312.356917 -200.48718245 312.356917 -200.48877937 311.14621016 C-200.50768913 296.17721848 -200.5066296 281.20827578 -200.49981004 266.23927709 C-200.49423692 252.54875587 -200.51504877 238.85842192 -200.54817051 225.16794446 C-200.58191616 211.1104088 -200.59707456 197.05296281 -200.59245348 182.99538589 C-200.59020929 175.10326189 -200.59544407 167.21131088 -200.62034607 159.3192215 C-200.64137083 152.59864126 -200.64493996 145.8783288 -200.62604648 139.15773752 C-200.61689473 135.72978825 -200.61572723 132.30233805 -200.63640213 128.8744278 C-200.654544 125.15478103 -200.64188021 121.4364641 -200.62145996 117.71685791 C-200.63397781 116.6378598 -200.64649566 115.5588617 -200.65939283 114.44716668 C-200.58113485 107.79993081 -199.51714412 103.04731141 -195 98 C-188.67288132 93.06016609 -181.7005836 93.45373354 -173.97460938 93.54589844 C-172.68596985 93.54531433 -171.39733032 93.54473022 -170.06964111 93.54412842 C-166.55760322 93.54298669 -163.04611834 93.56640689 -159.5342083 93.59442425 C-155.85604577 93.61952918 -152.17786878 93.62178703 -148.49963379 93.62652588 C-141.54408275 93.6389291 -134.58878495 93.67171439 -127.63334513 93.71192384 C-119.71073435 93.75672456 -111.78811111 93.77864938 -103.86540508 93.79870558 C-87.57678878 93.84044969 -71.28842677 93.9107496 -55 94 C-55 92.68 -55 91.36 -55 90 C-56.12494873 90.01571045 -57.24989746 90.0314209 -58.40893555 90.04760742 C-62.59278165 90.10201216 -66.77659662 90.13638836 -70.96069336 90.16479492 C-72.76966617 90.17985755 -74.5786026 90.20031177 -76.38745117 90.22631836 C-78.99146515 90.2628132 -81.5949952 90.27975157 -84.19921875 90.29296875 C-85.00461594 90.30845261 -85.81001312 90.32393646 -86.63981628 90.33988953 C-91.22181784 90.34125491 -94.3312828 90.06548219 -98 87 C-99.38603261 82.76037084 -99.36630973 80.76529174 -97.43260193 76.72540283 C-94.86007582 72.46998959 -91.53649794 69.12284698 -88.01586914 65.64355469 C-87.32105942 64.9450943 -86.62624969 64.24663391 -85.91038513 63.52700806 C-83.62596087 61.23451864 -81.33091581 58.95300848 -79.03515625 56.671875 C-77.43808228 55.07532003 -75.84152726 53.47824577 -74.24546814 51.88067627 C-70.90540519 48.54070286 -67.56025071 45.20594214 -64.21118164 41.875 C-59.92092251 37.60745467 -55.64185333 33.32889585 -51.36631107 29.04661179 C-48.07330436 25.75026268 -44.77532793 22.45892346 -41.47573662 19.16916656 C-39.89597031 17.59324577 -38.31754583 16.01597868 -36.74049568 14.43733978 C-34.53639752 12.23287043 -32.32590871 10.03501744 -30.11352539 7.83886719 C-29.46453278 7.18739716 -28.81554016 6.53592712 -28.1468811 5.86471558 C-20.05967837 -2.12808088 -10.80086332 -6.60067614 0 0 Z " fill="#50545F" transform="translate(257,59)"/>
<path d="M0 0 C5.33331748 4.26042418 10.20688077 9.05794343 15.02685547 13.8815918 C16.00402275 14.85372116 16.00402275 14.85372116 17.00093079 15.8454895 C19.12563355 17.9607921 21.24663958 20.07975158 23.3671875 22.19921875 C24.8530466 23.68186058 26.3389792 25.16442876 27.82498169 26.64692688 C30.9248094 29.74079289 34.0225898 32.83669233 37.11914062 35.93383789 C41.08862853 39.90342792 45.06498214 43.86606384 49.04308891 47.82701397 C52.10736302 50.88018491 55.16709696 53.9378744 58.22555923 56.99686623 C59.69038744 58.46051431 61.15683767 59.92254092 62.62493515 61.38290977 C64.67123229 63.41942962 66.71112043 65.46216308 68.74951172 67.5065918 C69.35625229 68.10771286 69.96299286 68.70883392 70.58811951 69.32817078 C71.14305588 69.88730164 71.69799225 70.4464325 72.26974487 71.02250671 C72.75159178 71.50380885 73.23343868 71.98511099 73.72988701 72.48099804 C75.96840273 75.15816912 76.92445319 77.49275711 77.4375 80.9375 C76.83745476 85.13781667 75.33724168 86.46079437 72 89 C67.80850648 89.95288046 63.79518507 90.11807231 59.5078125 90.09765625 C58.30898438 90.09443359 57.11015625 90.09121094 55.875 90.08789062 C54.01875 90.07532227 54.01875 90.07532227 52.125 90.0625 C50.86429688 90.05798828 49.60359375 90.05347656 48.3046875 90.04882812 C45.20307614 90.0370796 42.10156275 90.02065167 39 90 C39.01110306 90.84667236 39.02220612 91.69334473 39.03364563 92.56567383 C39.13408558 100.56867516 39.21008525 108.57146295 39.25906086 116.57495117 C39.285087 120.68907697 39.32035526 124.80267931 39.37719727 128.91650391 C39.4317693 132.89119567 39.461473 136.86538591 39.47438622 140.84042358 C39.48358126 142.35224292 39.50153712 143.86403671 39.52865028 145.37564087 C39.78248475 160.12202211 39.78248475 160.12202211 35.50028992 165.51316833 C29.51360526 171.44614983 24.02588607 171.52075703 15.86633301 171.53013611 C14.40046554 171.51965691 12.9346042 171.50828777 11.46875 171.49609375 C9.94852632 171.49624893 8.42830224 171.49774111 6.90808105 171.50050354 C3.73069649 171.50188381 0.55376536 171.48939255 -2.62353516 171.46655273 C-6.68202806 171.43816882 -10.73976835 171.44091022 -14.79831696 171.45364285 C-17.93489938 171.46062112 -21.07131 171.45278637 -24.20787048 171.44038582 C-25.70368286 171.43589214 -27.19951381 171.43551617 -28.69532776 171.43945122 C-30.79140587 171.44238476 -32.88647218 171.42575699 -34.98242188 171.40405273 C-36.76610168 171.39594826 -36.76610168 171.39594826 -38.58581543 171.38768005 C-43.72286665 170.8043688 -47.67598717 169.39558109 -51.3125 165.5625 C-54.43031593 160.82803877 -55.24812233 157.98551775 -55.22705078 152.21191406 C-55.22734283 151.53833359 -55.22763489 150.86475311 -55.22793579 150.17076111 C-55.22654641 147.95224974 -55.21100401 145.73407744 -55.1953125 143.515625 C-55.19158097 141.97434676 -55.18873466 140.43306613 -55.18673706 138.89178467 C-55.17911161 134.84097714 -55.15947253 130.7903137 -55.1373291 126.73956299 C-55.1168472 122.6037389 -55.10773033 118.46789147 -55.09765625 114.33203125 C-55.07622555 106.22128815 -55.04210281 98.11066201 -55 90 C-56.12494873 90.01571045 -57.24989746 90.0314209 -58.40893555 90.04760742 C-62.59278165 90.10201216 -66.77659662 90.13638836 -70.96069336 90.16479492 C-72.76966617 90.17985755 -74.5786026 90.20031177 -76.38745117 90.22631836 C-78.99146515 90.2628132 -81.5949952 90.27975157 -84.19921875 90.29296875 C-85.00461594 90.30845261 -85.81001312 90.32393646 -86.63981628 90.33988953 C-91.22181784 90.34125491 -94.3312828 90.06548219 -98 87 C-99.38603261 82.76037084 -99.36630973 80.76529174 -97.43260193 76.72540283 C-94.86007582 72.46998959 -91.53649794 69.12284698 -88.01586914 65.64355469 C-87.32105942 64.9450943 -86.62624969 64.24663391 -85.91038513 63.52700806 C-83.62596087 61.23451864 -81.33091581 58.95300848 -79.03515625 56.671875 C-77.43808228 55.07532003 -75.84152726 53.47824577 -74.24546814 51.88067627 C-70.90540519 48.54070286 -67.56025071 45.20594214 -64.21118164 41.875 C-59.92092251 37.60745467 -55.64185333 33.32889585 -51.36631107 29.04661179 C-48.07330436 25.75026268 -44.77532793 22.45892346 -41.47573662 19.16916656 C-39.89597031 17.59324577 -38.31754583 16.01597868 -36.74049568 14.43733978 C-34.53639752 12.23287043 -32.32590871 10.03501744 -30.11352539 7.83886719 C-29.46453278 7.18739716 -28.81554016 6.53592712 -28.1468811 5.86471558 C-20.05967837 -2.12808088 -10.80086332 -6.60067614 0 0 Z " fill="#DF6244" transform="translate(257,59)"/>
<path d="M0 0 C1.28863953 -0.00058411 2.57727905 -0.00116821 3.90496826 -0.00177002 C7.41700615 -0.00291174 10.92849104 0.02050846 14.44040108 0.04852581 C18.11856361 0.07363074 21.79674059 0.07588859 25.47497559 0.08062744 C32.43052663 0.09303066 39.38582442 0.12581595 46.34126425 0.1660254 C54.26387502 0.21082612 62.18649826 0.23275095 70.10920429 0.25280714 C86.3978206 0.29455125 102.6861826 0.36485116 118.97460938 0.45410156 C118.97460938 1.77410156 118.97460938 3.09410156 118.97460938 4.45410156 C118.31530867 4.45648992 117.65600796 4.45887827 116.97672844 4.461339 C100.92668779 4.52050211 84.87682045 4.59606047 68.82694817 4.68981647 C61.06530999 4.73476197 53.30371758 4.77417947 45.54199219 4.80053711 C38.77603867 4.82352733 32.0102301 4.85693671 25.24439156 4.90280312 C21.66266049 4.92672168 18.08107285 4.94545935 14.49926376 4.95171547 C10.49848766 4.95889875 6.49821011 4.98934533 2.49755859 5.02172852 C1.31288498 5.02029343 0.12821136 5.01885834 -1.09236145 5.01737976 C-8.97930789 5.0994403 -8.97930789 5.0994403 -16.02539062 8.45410156 C-19.82960288 12.56676346 -21.14860371 15.60930236 -21.15681839 21.15649414 C-21.16065953 22.12900116 -21.16450068 23.10150818 -21.16845822 24.10348511 C-21.16759174 25.17438385 -21.16672526 26.24528259 -21.16583252 27.34863281 C-21.16880364 28.48430695 -21.17177476 29.61998108 -21.17483592 30.79006958 C-21.18354416 34.6155876 -21.18503295 38.4410744 -21.18652344 42.26660156 C-21.19061108 45.00105983 -21.19615362 47.73551479 -21.2015686 50.4699707 C-21.21515412 57.91190427 -21.2211766 65.35383246 -21.22557926 72.79577637 C-21.22834055 77.44002395 -21.23257762 82.08426945 -21.23708344 86.72851562 C-21.24927493 99.58072784 -21.25957543 112.43293838 -21.26295853 125.28515625 C-21.26317809 126.10779213 -21.26339766 126.93042801 -21.26362388 127.77799225 C-21.26384216 128.60261711 -21.26406043 129.42724197 -21.26428533 130.27685547 C-21.2647288 131.94791667 -21.26517536 133.61897787 -21.265625 135.29003906 C-21.26584643 136.11894653 -21.26606786 136.947854 -21.266296 137.80187988 C-21.27024697 151.24359597 -21.28771061 164.68525795 -21.31098452 178.12695312 C-21.33467269 191.9188661 -21.34715917 205.71075189 -21.34832644 219.50268555 C-21.34924448 227.24986722 -21.35502925 234.99697834 -21.37314606 242.74414062 C-21.38851269 249.33856604 -21.39368784 255.93289908 -21.38540795 262.52733898 C-21.38148951 265.89383627 -21.38410619 269.25999537 -21.3964653 272.62649536 C-21.40906496 276.27101665 -21.40337341 279.91505333 -21.3928833 283.55957031 C-21.40496791 285.16591843 -21.40496791 285.16591843 -21.41729665 286.80471802 C-21.4107068 287.77722504 -21.40411696 288.74973206 -21.39732742 289.75170898 C-21.39792451 290.59344162 -21.3985216 291.43517426 -21.39913678 292.30241394 C-20.93466795 294.9763995 -20.16234527 295.82517849 -18.02539062 297.45410156 C-13.30967064 299.02600822 -9.47720564 298.95665291 -4.77539062 297.32910156 C-1.3497233 295.3204377 -1.3497233 295.3204377 0.97460938 289.45410156 C113.17460937 289.45410156 225.37460937 289.45410156 340.97460938 289.45410156 C339.91574182 296.86617441 339.75298562 297.67572532 334.97460938 302.45410156 C331.78573663 303.51705914 329.52301334 303.58157273 326.17176342 303.58552933 C324.34479641 303.59129104 324.34479641 303.59129104 322.48092097 303.59716916 C321.12222423 303.59638888 319.76352755 303.59551008 318.40483093 303.59454346 C316.96696178 303.59712641 315.52909335 303.60013938 314.09122592 303.60354686 C310.13043479 303.61162825 306.16966177 303.61340706 302.20886338 303.61414433 C297.94086286 303.61599289 293.67287178 303.62353921 289.40487671 303.63027954 C280.06817369 303.64387127 270.73147497 303.64988883 261.39476371 303.6542902 C255.56720434 303.65705109 249.73964664 303.66128814 243.91208839 303.66579437 C227.78380659 303.67798791 211.65552612 303.6882872 195.5272398 303.69166946 C194.49465821 303.69188903 193.46207662 303.6921086 192.39820467 303.69233482 C191.36312488 303.69255309 190.32804509 303.69277137 189.26159924 303.69299626 C187.16406421 303.69343973 185.06652917 303.6938863 182.96899414 303.69433594 C181.92853995 303.69455737 180.88808576 303.6947788 179.81610266 303.69500694 C162.95239256 303.69895598 146.08872565 303.71641287 129.22503223 303.73969546 C111.91989666 303.76339509 94.61478276 303.77587067 77.30963069 303.77703738 C67.58995355 303.7779549 57.87033267 303.78372655 48.15067101 303.80185699 C39.87503361 303.81723923 31.59946988 303.82238955 23.32382091 303.81411889 C19.1003205 303.81020578 14.87696851 303.81117414 10.65348625 303.82517624 C6.78767151 303.83787555 2.9221173 303.83675281 -0.94369688 303.82458553 C-2.34276505 303.82262162 -3.74185142 303.82573889 -5.14089397 303.83442989 C-7.0422396 303.84549415 -8.94367091 303.83625992 -10.84502125 303.82603836 C-12.42943318 303.82693399 -12.42943318 303.82693399 -14.04585344 303.82784772 C-18.49517984 303.26973465 -21.72276079 301.77775212 -24.87644625 298.57317519 C-26.24939282 296.04095959 -26.4032322 294.42212887 -26.40850067 291.54892349 C-26.41755731 290.55660855 -26.42661395 289.5642936 -26.43594503 288.5419085 C-26.43061711 287.45398751 -26.42528918 286.36606652 -26.4197998 285.24517822 C-26.42589091 284.08767618 -26.43198201 282.93017414 -26.43825769 281.73759627 C-26.45204148 278.52392865 -26.45233443 275.31058473 -26.44688272 272.09690237 C-26.44421544 268.63118054 -26.45873882 265.16552444 -26.47097778 261.6998291 C-26.49204844 254.90910228 -26.49657164 248.11846081 -26.4947899 241.32770517 C-26.49348282 235.80726317 -26.49728364 230.28684782 -26.50471497 224.76641083 C-26.50681415 223.17685755 -26.50891175 221.58730428 -26.51100779 219.997751 C-26.51205131 219.20659604 -26.51309484 218.41544108 -26.51416999 217.60031173 C-26.53307975 202.63132004 -26.53202023 187.66237734 -26.52520066 172.69337866 C-26.51962754 159.00285744 -26.5404394 145.31252348 -26.57356113 131.62204602 C-26.60730679 117.56451036 -26.62246519 103.50706437 -26.6178441 89.44948745 C-26.61559992 81.55736346 -26.6208347 73.66541245 -26.64573669 65.77332306 C-26.66676145 59.05274282 -26.67033059 52.33243036 -26.6514371 45.61183909 C-26.64228535 42.18388981 -26.64111786 38.75643961 -26.66179276 35.32852936 C-26.67993462 31.60888259 -26.66727083 27.89056566 -26.64685059 24.17095947 C-26.65936843 23.09196137 -26.67188628 22.01296326 -26.68478346 20.90126824 C-26.60652548 14.25403238 -25.54253475 9.50141298 -21.02539062 4.45410156 C-14.69827194 -0.48573234 -7.72597423 -0.0921649 0 0 Z " fill="#393C43" transform="translate(83.025390625,152.5458984375)"/>
<path d="M0 0 C5.33331748 4.26042418 10.20688077 9.05794343 15.02685547 13.8815918 C16.00402275 14.85372116 16.00402275 14.85372116 17.00093079 15.8454895 C19.12563355 17.9607921 21.24663958 20.07975158 23.3671875 22.19921875 C24.8530466 23.68186058 26.3389792 25.16442876 27.82498169 26.64692688 C30.9248094 29.74079289 34.0225898 32.83669233 37.11914062 35.93383789 C41.08862853 39.90342792 45.06498214 43.86606384 49.04308891 47.82701397 C52.10736302 50.88018491 55.16709696 53.9378744 58.22555923 56.99686623 C59.69038744 58.46051431 61.15683767 59.92254092 62.62493515 61.38290977 C64.67123229 63.41942962 66.71112043 65.46216308 68.74951172 67.5065918 C69.35625229 68.10771286 69.96299286 68.70883392 70.58811951 69.32817078 C71.14305588 69.88730164 71.69799225 70.4464325 72.26974487 71.02250671 C72.75159178 71.50380885 73.23343868 71.98511099 73.72988701 72.48099804 C75.96840273 75.15816912 76.92445319 77.49275711 77.4375 80.9375 C76.83745476 85.13781667 75.33724168 86.46079437 72 89 C67.80850648 89.95288046 63.79518507 90.11807231 59.5078125 90.09765625 C58.30898438 90.09443359 57.11015625 90.09121094 55.875 90.08789062 C54.01875 90.07532227 54.01875 90.07532227 52.125 90.0625 C50.86429688 90.05798828 49.60359375 90.05347656 48.3046875 90.04882812 C45.20307614 90.0370796 42.10156275 90.02065167 39 90 C39.01110306 90.84667236 39.02220612 91.69334473 39.03364563 92.56567383 C39.13408558 100.56867516 39.21008525 108.57146295 39.25906086 116.57495117 C39.285087 120.68907697 39.32035526 124.80267931 39.37719727 128.91650391 C39.4317693 132.89119567 39.461473 136.86538591 39.47438622 140.84042358 C39.48358126 142.35224292 39.50153712 143.86403671 39.52865028 145.37564087 C39.78248475 160.12202211 39.78248475 160.12202211 35.50028992 165.51316833 C29.51360526 171.44614983 24.02588607 171.52075703 15.86633301 171.53013611 C14.40046554 171.51965691 12.9346042 171.50828777 11.46875 171.49609375 C9.94852632 171.49624893 8.42830224 171.49774111 6.90808105 171.50050354 C3.73069649 171.50188381 0.55376536 171.48939255 -2.62353516 171.46655273 C-6.68202806 171.43816882 -10.73976835 171.44091022 -14.79831696 171.45364285 C-17.93489938 171.46062112 -21.07131 171.45278637 -24.20787048 171.44038582 C-25.70368286 171.43589214 -27.19951381 171.43551617 -28.69532776 171.43945122 C-30.79140587 171.44238476 -32.88647218 171.42575699 -34.98242188 171.40405273 C-36.76610168 171.39594826 -36.76610168 171.39594826 -38.58581543 171.38768005 C-43.72286665 170.8043688 -47.67598717 169.39558109 -51.3125 165.5625 C-54.43031593 160.82803877 -55.24812233 157.98551775 -55.22705078 152.21191406 C-55.22734283 151.53833359 -55.22763489 150.86475311 -55.22793579 150.17076111 C-55.22654641 147.95224974 -55.21100401 145.73407744 -55.1953125 143.515625 C-55.19158097 141.97434676 -55.18873466 140.43306613 -55.18673706 138.89178467 C-55.17911161 134.84097714 -55.15947253 130.7903137 -55.1373291 126.73956299 C-55.1168472 122.6037389 -55.10773033 118.46789147 -55.09765625 114.33203125 C-55.07622555 106.22128815 -55.04210281 98.11066201 -55 90 C-56.12494873 90.01571045 -57.24989746 90.0314209 -58.40893555 90.04760742 C-62.59278165 90.10201216 -66.77659662 90.13638836 -70.96069336 90.16479492 C-72.76966617 90.17985755 -74.5786026 90.20031177 -76.38745117 90.22631836 C-78.99146515 90.2628132 -81.5949952 90.27975157 -84.19921875 90.29296875 C-85.00461594 90.30845261 -85.81001312 90.32393646 -86.63981628 90.33988953 C-91.22181784 90.34125491 -94.3312828 90.06548219 -98 87 C-99.38603261 82.76037084 -99.36630973 80.76529174 -97.43260193 76.72540283 C-94.86007582 72.46998959 -91.53649794 69.12284698 -88.01586914 65.64355469 C-87.32105942 64.9450943 -86.62624969 64.24663391 -85.91038513 63.52700806 C-83.62596087 61.23451864 -81.33091581 58.95300848 -79.03515625 56.671875 C-77.43808228 55.07532003 -75.84152726 53.47824577 -74.24546814 51.88067627 C-70.90540519 48.54070286 -67.56025071 45.20594214 -64.21118164 41.875 C-59.92092251 37.60745467 -55.64185333 33.32889585 -51.36631107 29.04661179 C-48.07330436 25.75026268 -44.77532793 22.45892346 -41.47573662 19.16916656 C-39.89597031 17.59324577 -38.31754583 16.01597868 -36.74049568 14.43733978 C-34.53639752 12.23287043 -32.32590871 10.03501744 -30.11352539 7.83886719 C-29.46453278 7.18739716 -28.81554016 6.53592712 -28.1468811 5.86471558 C-20.05967837 -2.12808088 -10.80086332 -6.60067614 0 0 Z M-18.85778809 8.09442139 C-19.54773361 8.73247459 -20.23767914 9.3705278 -20.9485321 10.02791595 C-21.62551651 10.67870369 -22.30250092 11.32949142 -23 12 C-23.59573318 12.56810646 -24.19146637 13.13621292 -24.80525208 13.72153473 C-26.60368292 15.46127974 -28.37943668 17.2215648 -30.15039062 18.98925781 C-30.81480164 19.64870392 -31.47921265 20.30815002 -32.16375732 20.98757935 C-34.33065612 23.14003215 -36.49378481 25.29621856 -38.65625 27.453125 C-39.39912766 28.19317528 -40.14200531 28.93322556 -40.90739441 29.6957016 C-44.82637791 33.59977642 -48.74254115 37.50665339 -52.65625 41.41601562 C-56.70270189 45.45694573 -60.75837477 49.48848963 -64.81620026 53.51799393 C-67.93690242 56.62012986 -71.05093222 59.72889748 -74.16313171 62.83956146 C-75.65664439 64.33004149 -77.15266481 65.81801296 -78.65119934 67.30344391 C-80.73615228 69.37143732 -82.81154078 71.44857872 -84.88476562 73.52832031 C-85.50804749 74.14238739 -86.13132935 74.75645447 -86.77349854 75.38912964 C-90.20477891 78.58101195 -90.20477891 78.58101195 -91 83 C-76.81 83 -62.62 83 -48 83 C-48.495 84.485 -48.495 84.485 -49 86 C-49.1098045 88.22178506 -49.15903511 90.44671836 -49.17700195 92.67114258 C-49.18357315 93.34469284 -49.19014435 94.0182431 -49.19691467 94.71220398 C-49.21661339 96.93964759 -49.2283025 99.16702389 -49.23828125 101.39453125 C-49.24235678 102.15657049 -49.2464323 102.91860973 -49.25063133 103.70374107 C-49.27147739 107.73714297 -49.28578546 111.77051099 -49.29516602 115.80395508 C-49.30622799 119.96356095 -49.34062906 124.1226315 -49.38033772 128.28204823 C-49.40651844 131.48631261 -49.4148591 134.6904497 -49.41844749 137.89481163 C-49.42330966 139.42777815 -49.43491323 140.96073912 -49.45348549 142.49360085 C-49.47790985 144.64305344 -49.47690695 146.79112412 -49.4699707 148.94067383 C-49.47583694 150.16184402 -49.48170319 151.38301422 -49.48774719 152.64118958 C-48.89928725 156.69354585 -47.54921668 158.82985841 -45 162 C-41.43374149 164.37750568 -39.84015712 164.26772667 -35.60424805 164.30639648 C-34.63781372 164.31888176 -34.63781372 164.31888176 -33.65185547 164.33161926 C-31.52174838 164.35571474 -29.39194768 164.36449137 -27.26171875 164.37109375 C-25.77822275 164.38006179 -24.29472767 164.38918367 -22.81123352 164.39845276 C-19.70006107 164.414945 -16.58899624 164.42264303 -13.4777832 164.42553711 C-9.49958623 164.43091552 -5.52240732 164.46857032 -1.54449749 164.51428127 C1.52082467 164.54409319 4.58590315 164.55126157 7.65135765 164.55226326 C9.11734864 164.5564589 10.5833408 164.56886708 12.04918861 164.58978081 C20.99166596 165.0577986 20.99166596 165.0577986 28.88354492 161.59008789 C32.19156127 157.54178411 32.12612366 155.41428268 32.12939453 150.21118164 C32.13114685 149.51345139 32.13289917 148.81572113 32.13470459 148.09684753 C32.13911481 145.78459199 32.13618771 143.47241261 32.1328125 141.16015625 C32.13348585 139.55594366 32.13445614 137.95173116 32.13571167 136.34751892 C32.13718758 132.98240184 32.13503779 129.61731127 32.13037109 126.25219727 C32.12467845 121.93666754 32.12795053 117.62120007 32.13394356 113.30567265 C32.13755596 109.99173005 32.13640737 106.67780222 32.13381577 103.36385918 C32.13314814 101.77262807 32.1339692 100.18139563 32.13629532 98.59016609 C32.13883244 96.36614554 32.13496605 94.14222592 32.12939453 91.91821289 C32.12859894 90.65183487 32.12780334 89.38545685 32.12698364 88.08070374 C32.14079931 84.96091653 32.14079931 84.96091653 31 82 C43.54 82 56.08 82 69 82 C68.03326738 78.13306952 67.76961546 77.39486605 65.1598053 74.79231262 C64.55550186 74.18244003 63.95119843 73.57256744 63.32858276 72.94421387 C62.66206696 72.28691284 61.99555115 71.62961182 61.30883789 70.95239258 C60.60964737 70.25115768 59.91045685 69.54992279 59.19007874 68.82743835 C56.87479623 66.50914529 54.54894207 64.20177877 52.22265625 61.89453125 C50.61403694 60.28896892 49.00600717 58.68281573 47.39854431 57.07609558 C44.0278029 53.70995887 40.65220668 50.34879639 37.27270508 46.99145508 C32.93337365 42.68042873 28.60278751 38.36075114 24.27535343 34.03778553 C20.95510859 30.72169046 17.63204149 27.40843678 14.30792046 24.09622765 C12.70980411 22.50382177 11.11216402 20.9109378 9.5150013 19.31757545 C7.28612774 17.0955504 5.05390355 14.87695154 2.82055664 12.65942383 C2.15606506 11.99605011 1.49157349 11.33267639 0.8069458 10.64920044 C0.19982254 10.04778732 -0.40730072 9.44637421 -1.03282166 8.82673645 C-1.56063201 8.30190076 -2.08844236 7.77706507 -2.63224697 7.23632526 C-5.60192201 4.55200712 -8.60111381 4.4694554 -12.46152496 4.54683304 C-15.49342601 5.0880861 -16.62529724 6.0077944 -18.85778809 8.09442139 Z " fill="#D1D4E1" transform="translate(257,59)"/>
<path d="M0 0 C1.14017232 -0.01385427 2.28034464 -0.02770855 3.45506763 -0.04198265 C5.58622831 -0.06800368 7.71729511 -0.10542633 9.8479948 -0.15682411 C16.46166576 -0.2186339 21.45600036 0.39254908 26.76864624 4.67694092 C27.83114624 6.11444092 27.83114624 6.11444092 27.83114624 8.11444092 C27.03638193 8.10614478 26.24161762 8.09784864 25.42276955 8.08930111 C6.05859495 7.89029191 -13.30537478 7.74148921 -32.67035484 7.64813137 C-42.03530037 7.6017805 -51.39956208 7.53862179 -60.7640686 7.43548584 C-68.92899312 7.34560457 -77.09342229 7.28767571 -85.25882781 7.26764446 C-89.58017232 7.25593988 -93.90010015 7.22855881 -98.22098923 7.16287041 C-102.29423373 7.1014527 -106.36548818 7.08300015 -110.43915176 7.09647179 C-111.92828976 7.09401009 -113.41749917 7.07629621 -114.90623474 7.04159164 C-122.45773196 6.87429581 -127.98370583 7.1838509 -133.87750244 12.42268372 C-135.3384939 13.95811046 -136.77106165 15.5212653 -138.16885376 17.11444092 C-139.53390464 18.4850766 -140.90510106 19.84965916 -142.28604126 21.20428467 C-144.18917137 23.14461588 -146.08354458 25.09295744 -147.97354126 27.04608154 C-148.90166626 27.99064209 -148.90166626 27.99064209 -149.84854126 28.95428467 C-150.3923645 29.51494629 -150.93618774 30.07560791 -151.49649048 30.65325928 C-155.17322271 33.86570343 -158.21020147 34.36444441 -163.03833008 34.36599731 C-164.83840767 34.37407158 -164.83840767 34.37407158 -166.67485046 34.38230896 C-167.9881987 34.37818497 -169.30154694 34.37406097 -170.6546936 34.36981201 C-172.05439966 34.3725626 -173.45410415 34.37624291 -174.85380554 34.38078308 C-177.86635828 34.38889105 -180.8788368 34.39106455 -183.89139938 34.38883591 C-188.65692961 34.38600181 -193.4223117 34.40035851 -198.18780518 34.41781616 C-211.73843157 34.46483345 -225.28904786 34.48878294 -238.8397522 34.49530029 C-246.32501182 34.49905237 -253.81010378 34.5170933 -261.29529154 34.55039465 C-266.03050166 34.5705997 -270.76527912 34.5729835 -275.50051475 34.56211448 C-278.4497735 34.55950438 -281.39878119 34.57352574 -284.34797478 34.59219551 C-286.36257556 34.60004069 -288.37722312 34.58809044 -290.39179993 34.57551575 C-299.11236161 34.58214337 -299.11236161 34.58214337 -306.16885376 39.11444092 C-310.61026975 45.70927072 -311.51399517 53.10011655 -312.74899292 60.81912231 C-313.35977371 64.63532866 -314.01188607 68.4445651 -314.65713501 72.25506592 C-314.78465149 73.01558762 -314.91216797 73.77610931 -315.04354858 74.55967712 C-316.15783169 81.16897262 -317.44100488 87.73735761 -318.79385376 94.30194092 C-320.54385982 102.85242117 -322.11998716 111.41532707 -323.57730103 120.02020264 C-325.00212928 128.34767421 -326.60707584 136.63672266 -328.23135376 144.92694092 C-329.94906948 153.70373535 -331.62729151 162.47818825 -333.05581665 171.30731201 C-334.20430244 178.39868972 -335.42691876 185.47635488 -336.66885376 192.55194092 C-336.87067261 193.72587402 -337.07249146 194.89980713 -337.28042603 196.10931396 C-340.67406061 215.32899354 -340.67406061 215.32899354 -344.41885376 219.80194092 C-347.84358293 221.43647075 -350.41988111 221.40847799 -354.16885376 221.11444092 C-353.54180542 220.1101001 -352.91475708 219.10575928 -352.26870728 218.07098389 C-350.17311437 214.39263728 -349.28729897 211.00371098 -348.57119751 206.80975342 C-348.4518837 206.13367035 -348.33256989 205.45758728 -348.2096405 204.76101685 C-347.82930986 202.58911762 -347.46771825 200.41456798 -347.10635376 198.23944092 C-346.8446008 196.72554928 -346.58157316 195.2118775 -346.31729126 193.69842529 C-345.82076063 190.84433833 -345.33119813 187.98926026 -344.85025024 185.13250732 C-344.14595398 180.9557343 -343.40843808 176.78508314 -342.66885376 172.61444092 C-342.44584595 171.34342529 -342.22283813 170.07240967 -341.99307251 168.76287842 C-338.13646319 146.92040029 -334.06245519 125.11650322 -329.99697876 103.31219482 C-328.30758702 94.24939923 -326.62436668 85.18578477 -324.98135376 76.11444092 C-324.8342395 75.31175781 -324.68712524 74.50907471 -324.53555298 73.68206787 C-323.6429566 68.8004652 -322.79299715 63.91315461 -321.96182251 59.02069092 C-321.53098474 56.55191442 -321.09999676 54.08316413 -320.66885376 51.61444092 C-320.47911987 50.46072998 -320.28938599 49.30701904 -320.09390259 48.11834717 C-318.55345031 39.41262445 -316.59253312 34.38916046 -309.16885376 29.11444092 C-306.5153735 27.78770079 -304.51255643 27.98368187 -301.53988647 27.97640991 C-300.34258408 27.97095657 -299.14528168 27.96550323 -297.91169739 27.95988464 C-296.57781988 27.9587648 -295.24394231 27.95771429 -293.9100647 27.95672607 C-292.51065409 27.95205874 -291.11124501 27.94691531 -289.71183777 27.94132996 C-286.69381604 27.93003998 -283.67580424 27.92161008 -280.65776825 27.91521072 C-275.88402113 27.90453889 -271.11034509 27.88429551 -266.3366394 27.86209106 C-252.76039898 27.80014172 -239.18416225 27.74617248 -225.6078186 27.71307373 C-218.11306269 27.69472134 -210.61842538 27.66577632 -203.12375665 27.62506902 C-199.15751443 27.60400666 -195.19142163 27.58854288 -191.22512054 27.58626175 C-187.49205165 27.58411232 -183.75929367 27.56821312 -180.0263195 27.54187202 C-178.00694888 27.53126894 -175.98751755 27.53542892 -173.96812439 27.54005432 C-172.75954269 27.52896133 -171.550961 27.51786835 -170.30575562 27.50643921 C-169.25935284 27.50312906 -168.21295006 27.49981892 -167.1348381 27.49640846 C-161.07107309 26.71550028 -157.26712035 23.57835154 -153.12979126 19.29803467 C-152.21971313 18.36926514 -151.30963501 17.44049561 -150.37197876 16.48358154 C-149.42860692 15.50700851 -148.48590456 14.52978835 -147.54385376 13.55194092 C-145.68283359 11.62772228 -143.81449682 9.71146067 -141.94229126 7.79803467 C-140.71131714 6.52270874 -140.71131714 6.52270874 -139.45547485 5.22161865 C-135.77225877 1.82744419 -133.06178239 0.86686787 -128.07261658 0.83596802 C-127.04306351 0.82480453 -126.01351044 0.81364105 -124.95275879 0.80213928 C-123.82822296 0.7999791 -122.70368713 0.79781891 -121.54507446 0.79559326 C-120.35569778 0.78554764 -119.16632111 0.77550201 -117.94090271 0.76515198 C-114.67509411 0.73953115 -111.40938054 0.72268045 -108.14350152 0.70972395 C-104.70115345 0.69402231 -101.25889123 0.66722939 -97.81660461 0.64169312 C-91.26980849 0.59483552 -84.72299543 0.55816356 -78.17611712 0.52502024 C-70.82627066 0.48727447 -63.47652147 0.43753549 -56.12675345 0.38703609 C-27.85884505 0.19419001 -27.85884505 0.19419001 -14.23980713 0.15124512 C-9.49220173 0.13421749 -4.74694608 0.07998071 0 0 Z " fill="#6C7481" transform="translate(425.1688537597656,229.88555908203125)"/>
<path d="M0 0 C14.07360301 -0.09360288 28.14715748 -0.16379082 42.2210083 -0.20724869 C48.75633554 -0.2281081 55.29145341 -0.25639643 61.82666016 -0.30175781 C68.13550877 -0.34527314 74.44415618 -0.36914949 80.75314331 -0.37950897 C83.1580624 -0.38689003 85.56297069 -0.40130351 87.96780396 -0.42292023 C91.34075571 -0.45202877 94.71288 -0.45595274 98.0859375 -0.45410156 C99.07640579 -0.46848267 100.06687408 -0.48286377 101.08735657 -0.49768066 C108.03941967 -0.45649398 113.722431 0.82681218 118.83984375 5.78125 C119.38318359 6.63203125 119.38318359 6.63203125 119.9375 7.5 C120.31777344 8.0671875 120.69804687 8.634375 121.08984375 9.21875 C123.00317713 12.96329945 123.11977741 16.48184662 123.09765625 20.640625 C123.09282227 22.24550781 123.09282227 22.24550781 123.08789062 23.8828125 C123.07532227 25.54957031 123.07532227 25.54957031 123.0625 27.25 C123.05798828 28.37664062 123.05347656 29.50328125 123.04882812 30.6640625 C123.03705397 33.44276217 123.0206084 36.22135409 123 39 C121.35 39 119.7 39 118 39 C117.99589111 38.24380371 117.99178223 37.48760742 117.98754883 36.70849609 C117.95453795 33.26321716 117.88388303 29.81968877 117.8125 26.375 C117.80669922 25.18519531 117.80089844 23.99539062 117.79492188 22.76953125 C117.78619405 15.56069761 117.78619405 15.56069761 114.69921875 9.2890625 C110.94142688 6.10228098 108.3574343 4.7559821 103.41888428 4.7215271 C102.50465698 4.71036362 101.59042969 4.69920013 100.64849854 4.68769836 C99.15525055 4.68445808 99.15525055 4.68445808 97.63183594 4.68115234 C96.57786621 4.67110672 95.52389648 4.6610611 94.43798828 4.65071106 C90.95345608 4.61981465 87.46900094 4.60282578 83.984375 4.5859375 C81.56869847 4.56723107 79.1530285 4.54765806 76.73736572 4.5272522 C70.37849801 4.47586965 64.0196091 4.43627658 57.66064453 4.39910889 C51.17214691 4.35910769 44.68373793 4.30799762 38.1953125 4.2578125 C25.46360501 4.16098067 12.7318467 4.07622185 0 4 C0 2.68 0 1.36 0 0 Z " fill="#383B42" transform="translate(296,191)"/>
</svg>
